<svg fill="currentColor" height="1em" style="flex:none;line-height:1" viewBox="0 0 724.000000 952.000000" width="1em" xmlns="http://www.w3.org/2000/svg"><title>Ollama</title><g transform="translate(0.000000,952.000000) scale(0.100000,-0.100000)"
fill="currentColor" stroke="none">
<path d="M1545 9484 c-104 -22 -200 -79 -295 -174 -47 -47 -103 -112 -125
-145 -44 -65 -165 -304 -165 -326 0 -8 -9 -36 -19 -64 -41 -109 -88 -301 -117
-485 -47 -297 -44 -863 7 -1138 l23 -124 -190 -187 c-104 -103 -205 -208 -224
-234 -19 -26 -54 -73 -77 -103 -24 -31 -43 -60 -43 -65 0 -4 -11 -24 -25 -44
-29 -43 -135 -259 -135 -276 0 -6 -6 -25 -14 -42 -46 -100 -93 -297 -116 -481
-6 -49 -15 -97 -21 -107 -15 -28 -11 -278 5 -324 8 -22 17 -74 21 -115 11
-121 66 -338 111 -437 8 -17 14 -35 14 -40 0 -10 94 -197 120 -238 11 -16 27
-43 36 -60 9 -16 23 -35 30 -43 18 -17 18 -51 0 -71 -7 -9 -35 -65 -61 -126
-67 -158 -69 -161 -97 -255 -55 -179 -68 -227 -68 -247 0 -12 -9 -59 -19 -105
-42 -177 -47 -671 -11 -863 31 -159 75 -334 95 -371 8 -16 15 -35 15 -43 0
-27 112 -256 163 -336 51 -78 57 -115 26 -157 -14 -18 -37 -60 -53 -93 -15
-33 -34 -72 -42 -87 -8 -14 -14 -32 -14 -39 0 -8 -9 -36 -19 -64 -120 -309
-154 -914 -70 -1249 16 -65 29 -120 29 -122 0 -2 121 -4 269 -4 l268 0 6 36
c8 47 -2 121 -20 157 -17 34 -49 216 -57 322 -11 169 32 492 90 665 9 25 19
59 23 75 5 17 22 54 40 83 17 29 46 81 65 115 18 34 47 88 65 120 35 65 48
142 37 229 -7 55 -38 111 -146 258 -40 56 -140 248 -140 272 -1 7 -9 31 -20
53 -11 22 -19 48 -20 58 0 9 -9 50 -20 90 -84 310 -66 701 48 1067 14 47 32
96 39 110 7 14 13 31 13 38 0 7 10 32 22 55 12 23 25 50 30 60 26 53 85 158
114 202 18 28 40 78 48 112 15 59 15 67 -1 130 -16 59 -26 76 -81 132 -85 87
-111 122 -163 216 -42 77 -53 100 -79 175 -7 19 -19 51 -27 70 -8 19 -19 57
-23 85 -5 27 -16 84 -25 125 -13 59 -16 115 -13 260 5 188 16 262 59 395 10
33 19 67 19 75 0 8 9 32 20 53 11 20 20 42 20 48 0 17 85 182 126 246 147 224
365 420 584 525 194 93 445 142 605 118 152 -23 173 -23 220 -6 49 19 105 76
105 107 0 16 43 102 88 175 93 152 270 328 427 425 63 38 76 46 145 79 137 67
165 78 325 123 107 30 116 31 310 31 180 0 208 -2 280 -23 116 -34 219 -69
252 -85 15 -8 57 -29 93 -46 36 -17 83 -42 105 -55 22 -13 47 -27 55 -31 40
-21 192 -145 248 -203 92 -95 193 -247 247 -371 36 -81 57 -105 112 -126 45
-17 60 -17 223 6 115 17 295 -7 450 -58 73 -24 230 -96 281 -130 153 -100 255
-191 357 -320 61 -77 85 -112 129 -187 28 -48 107 -213 118 -250 7 -22 18 -53
24 -70 38 -109 81 -364 81 -478 0 -97 -29 -281 -64 -407 -51 -183 -146 -359
-271 -499 -42 -47 -55 -71 -69 -125 -15 -62 -15 -71 0 -129 8 -34 30 -84 48
-112 29 -44 88 -149 114 -202 5 -10 18 -37 30 -60 12 -23 22 -48 22 -55 0 -7
6 -24 13 -38 7 -14 25 -63 39 -110 114 -366 132 -757 48 -1067 -11 -40 -20
-81 -20 -90 -1 -10 -9 -36 -20 -58 -11 -22 -19 -46 -20 -53 0 -24 -100 -216
-140 -272 -108 -147 -139 -203 -146 -258 -11 -87 2 -164 37 -229 18 -32 47
-86 65 -120 19 -34 48 -86 65 -115 18 -29 35 -66 40 -83 4 -16 14 -50 23 -75
58 -173 101 -496 90 -665 -8 -106 -40 -288 -57 -322 -18 -36 -28 -110 -20
-157 l6 -36 268 0 c148 0 269 2 269 4 0 2 13 57 29 122 84 335 50 940 -70
1249 -10 28 -19 56 -19 64 0 7 -6 25 -14 39 -8 15 -27 54 -42 87 -16 33 -39
75 -53 93 -31 42 -25 79 26 157 51 80 163 309 163 336 0 8 7 27 15 43 20 37
64 212 95 371 36 192 31 686 -11 863 -10 46 -19 93 -19 105 0 11 -9 52 -21 91
-44 150 -73 242 -85 271 -43 105 -109 253 -120 270 -23 33 -16 71 26 134 22
33 40 64 40 69 0 5 8 20 18 33 10 13 36 67 59 119 70 161 101 256 135 410 21
96 23 130 23 405 0 250 -3 315 -18 390 -22 107 -52 221 -77 290 -10 28 -22 61
-26 75 -3 14 -13 34 -20 45 -8 11 -14 34 -14 52 0 30 -75 188 -106 224 -8 8
-14 20 -14 26 0 6 -19 36 -42 67 -24 30 -59 77 -78 103 -19 26 -120 131 -224
234 l-190 187 23 124 c51 275 54 841 7 1138 -29 184 -76 376 -117 485 -10 28
-19 56 -19 64 0 22 -121 261 -165 326 -66 99 -200 225 -283 267 -78 41 -186
68 -267 68 -69 0 -187 -26 -239 -53 -102 -52 -126 -69 -197 -140 -99 -98 -165
-194 -239 -344 -37 -77 -48 -102 -80 -193 -7 -19 -21 -56 -32 -82 -10 -26 -18
-55 -18 -64 0 -10 -9 -47 -19 -83 -29 -98 -61 -244 -61 -277 0 -54 -31 -209
-45 -223 -11 -12 -18 -11 -47 7 -48 30 -151 79 -260 125 -100 43 -295 99 -423
123 -140 26 -450 27 -585 1 -114 -22 -226 -52 -295 -78 -28 -10 -56 -19 -62
-19 -22 0 -309 -136 -319 -151 -10 -18 -44 -9 -53 14 -4 12 -14 67 -20 122
-14 114 -43 259 -72 356 -10 36 -19 73 -19 83 0 9 -8 38 -18 64 -11 26 -25 63
-32 82 -32 91 -43 116 -80 193 -74 150 -140 246 -239 344 -71 71 -95 88 -197
140 -94 48 -247 64 -369 37z m204 -591 c65 -73 147 -236 190 -378 50 -167 62
-221 91 -405 16 -96 40 -402 40 -499 0 -76 -4 -104 -22 -140 -35 -76 -54 -91
-112 -91 -104 0 -430 -45 -519 -72 -23 -7 -41 -8 -47 -2 -17 17 -40 261 -40
421 0 180 23 437 51 565 10 48 19 95 19 104 0 35 58 212 107 329 48 113 134
224 175 225 9 0 39 -25 67 -57z m3852 34 c37 -31 101 -130 132 -202 49 -117
107 -294 107 -329 0 -9 9 -56 19 -104 28 -128 51 -385 51 -565 0 -135 -21
-384 -35 -424 -6 -17 -30 -16 -58 1 -37 23 -390 76 -509 76 -62 0 -80 14 -116
91 -27 57 -29 158 -7 409 15 170 20 208 45 355 17 96 75 308 105 380 68 166
181 336 223 335 9 -1 29 -11 43 -23z M3400 5511 c-243 -42 -288 -55 -479 -136
-309 -132 -579 -398 -699 -690 -59 -143 -67 -190 -67 -380 1 -171 2 -184 30
-270 27 -83 72 -181 123 -265 56 -91 215 -246 327 -318 86 -56 240 -132 266
-132 8 -1 32 -9 54 -20 22 -11 48 -19 58 -20 10 0 55 -10 100 -22 79 -22 98
-23 507 -23 409 0 428 1 507 23 45 12 90 22 100 22 10 1 36 9 58 20 22 11 46
19 54 20 26 0 180 76 266 132 112 72 271 227 327 318 51 84 96 182 123 265 28
86 29 99 30 270 0 191 -8 236 -67 380 -148 361 -496 651 -923 773 -157 44
-244 55 -450 58 -110 1 -220 -1 -245 -5z m495 -384 c61 -14 126 -30 145 -37
107 -38 222 -92 251 -116 8 -8 19 -14 23 -14 13 0 111 -77 167 -132 183 -178
266 -389 239 -604 -9 -71 -19 -100 -69 -204 -27 -57 -191 -234 -243 -261 -144
-76 -231 -111 -347 -140 -89 -21 -114 -23 -441 -23 -327 0 -352 2 -441 23
-116 29 -203 64 -347 140 -52 27 -216 204 -243 261 -50 104 -60 133 -69 204
-27 215 56 426 239 604 112 109 240 188 391 242 19 7 51 19 70 26 34 13 197
48 270 58 83 11 297 -4 405 -27z M3364 4648 c-80 -40 -108 -141 -59 -209 31
-41 73 -77 126 -110 38 -23 40 -26 36 -69 -3 -25 -10 -75 -18 -111 -12 -63
-12 -68 11 -103 34 -56 73 -76 149 -76 72 0 132 26 150 67 13 29 14 96 1 181
-5 35 -6 70 -3 77 2 8 28 30 56 49 65 43 92 71 112 118 19 47 19 68 -1 118
-13 32 -27 46 -65 65 -27 14 -59 25 -72 25 -28 0 -132 -44 -142 -59 -11 -18
-39 -12 -111 24 -79 40 -112 42 -170 13z M1700 5441 c-39 -9 -103 -43 -138
-75 -28 -25 -82 -102 -82 -117 0 -6 -8 -23 -18 -37 -28 -41 -46 -132 -40 -206
12 -147 107 -255 258 -292 130 -32 209 -11 308 81 80 74 116 130 143 225 24
83 24 122 -1 197 -24 71 -97 157 -166 198 -38 23 -60 27 -137 30 -51 2 -108 0
-127 -4z M5340 5441 c-87 -19 -196 -125 -230 -225 -25 -74 -25 -113 -1 -196
27 -95 63 -151 143 -225 99 -92 178 -113 308 -81 151 37 246 145 258 292 6 74
-12 165 -40 206 -10 14 -18 31 -18 37 0 15 -54 92 -82 117 -12 11 -45 33 -71
48 -41 23 -62 28 -140 31 -51 2 -108 1 -127 -4z"/>
</g></svg>